<svg xmlns="http://www.w3.org/2000/svg" version="1.1" xmlns:xlink="http://www.w3.org/1999/xlink" width="1024" height="1024"><svg xmlns="http://www.w3.org/2000/svg" xmlns:xlink="http://www.w3.org/1999/xlink" width="1024" height="1024" viewBox="0 0 1024 1024"><path fill="#FECF1C" transform="scale(2 2)" d="M77.0999 152.989C77.3082 146.943 77.4072 140.876 78.358 134.89C83.8794 100.126 111.878 73.3835 145.851 66.4533C156.662 64.248 167.721 64.7384 178.686 64.744L332.25 64.7543C364.478 64.7544 389.791 67.7443 413.339 93.6118C439.685 122.553 433.784 147.127 434.727 181.8C434.721 184.475 434.134 195.413 435.396 197.075L435.47 197.102C446.035 206.116 453.913 213.705 453.259 228.417L453.259 244.686C453.302 264.242 454.788 278.134 435.47 288.02C435.898 291.54 435.506 295.234 435.487 298.78L435.471 347.919C435.477 352.12 435.799 356.422 435.586 360.606C433.493 401.76 403.364 435.623 362.42 441.995C356.674 442.889 350.697 442.719 344.899 442.717L166.019 442.722C159.989 442.722 153.805 442.886 147.837 441.885C111.924 435.86 83.6085 407.684 78.1397 371.418C76.8066 362.578 77.0887 353.431 77.087 344.516L77.1156 297.698C77.1165 294.477 77.3112 291.206 76.734 288.02C58.3566 278.114 59.2837 265.147 59.2764 246.359C59.2689 226.79 56.4914 210.056 77.0999 198.976C77.5786 195.755 77.1017 189.198 77.0999 185.583C76.5875 182.065 77.0291 178.299 77.0372 174.754L77.0999 152.989Z"></path><defs><linearGradient id="SvgjsLinearGradient1019" gradientUnits="userSpaceOnUse" x1="350.15662" y1="253.79868" x2="159.21234" y2="39.047527"><stop offset="0" stop-color="#FFE25F"></stop><stop offset="1" stop-color="#FFF1A7"></stop></linearGradient></defs><path fill="url(#gradient_0)" transform="scale(2 2)" d="M77.0999 152.989C77.3082 146.943 77.4072 140.876 78.358 134.89C83.8794 100.126 111.878 73.3835 145.851 66.4533C156.662 64.248 167.721 64.7384 178.686 64.744L332.25 64.7543C364.478 64.7544 389.791 67.7443 413.339 93.6118C439.685 122.553 433.784 147.127 434.727 181.8C434.721 184.475 434.134 195.413 435.396 197.075L435.47 197.102L435.423 197.588C434.589 206.752 437.193 216.612 435.12 225.596C434.33 225.936 433.504 225.937 432.657 225.997C430.54 225.766 428.214 225.979 426.075 225.997C422.595 214.478 422.86 205.601 415.288 194.226C414.564 191.364 412.665 188.785 410.979 186.413C380.331 143.279 313.748 142.715 280.619 184.066C278.543 186.657 276.381 189.425 274.882 192.39C269.698 200.195 265.853 210.548 264.623 219.945C264.438 221.358 264.772 223.981 263.738 225.007C258.459 224.823 253.306 224.756 248.026 225.044C246.381 210.703 240.929 197.062 232.235 185.538C216.89 165.197 192.86 153.274 167.38 153.359C141.901 153.444 117.95 165.527 102.741 185.97C93.9874 197.735 88.5965 211.659 87.1446 226.251C84.7871 226.277 82.4706 226.16 80.1211 225.997C79.1223 225.94 78.1013 225.991 77.0999 225.997C76.7613 223.319 77.071 220.312 77.0765 217.597L77.0999 198.976C77.5786 195.755 77.1017 189.198 77.0999 185.583C76.5875 182.065 77.0291 178.299 77.0372 174.754L77.0999 152.989Z"></path><defs><linearGradient id="SvgjsLinearGradient1018" gradientUnits="userSpaceOnUse" x1="266.84055" y1="258.90851" x2="235.31541" y2="102.10995"><stop offset="0" stop-color="#FFCD00"></stop><stop offset="1" stop-color="#FFE562"></stop></linearGradient></defs><path fill="url(#gradient_1)" transform="scale(2 2)" d="M85.4093 175.085L85.7181 174.78C88.2309 172.272 90.4889 169.436 92.9171 166.834C130.503 126.558 195.803 103.446 249.656 103.13C313.725 102.755 376.841 123.594 422.835 169.13C425.255 171.526 434.175 179.028 434.727 181.8C434.721 184.475 434.134 195.413 435.396 197.075L435.47 197.102L435.423 197.588C434.589 206.752 437.193 216.612 435.12 225.596C434.33 225.936 433.504 225.937 432.657 225.997C430.54 225.766 428.214 225.979 426.075 225.997C422.595 214.478 422.86 205.601 415.288 194.226C414.564 191.364 412.665 188.785 410.979 186.413C380.331 143.279 313.748 142.715 280.619 184.066C278.543 186.657 276.381 189.425 274.882 192.39C269.698 200.195 265.853 210.548 264.623 219.945C264.438 221.358 264.772 223.981 263.738 225.007C258.459 224.823 253.306 224.756 248.026 225.044C246.381 210.703 240.929 197.062 232.235 185.538C216.89 165.197 192.86 153.274 167.38 153.359C141.901 153.444 117.95 165.527 102.741 185.97C93.9874 197.735 88.5965 211.659 87.1446 226.251C84.7871 226.277 82.4706 226.16 80.1211 225.997C79.1223 225.94 78.1013 225.991 77.0999 225.997C76.7613 223.319 77.071 220.312 77.0765 217.597L77.0999 198.976C77.5786 195.755 77.1017 189.198 77.0999 185.583C79.9724 182.183 82.6057 178.549 85.4093 175.085Z"></path><path fill="#FFECB2" transform="scale(2 2)" d="M77.0999 152.989L77.4124 153.108C77.7009 158.326 76.6381 175.941 77.6664 177.501L78.2828 177.027C79.3397 177.732 79.6223 179.94 80.7754 179.987C82.4423 178.78 83.5037 175.685 85.4093 175.085C82.6057 178.549 79.9724 182.183 77.0999 185.583C76.5875 182.065 77.0291 178.299 77.0372 174.754L77.0999 152.989Z"></path><defs><linearGradient id="SvgjsLinearGradient1017" gradientUnits="userSpaceOnUse" x1="348.40048" y1="314.98181" x2="341.06125" y2="153.42894"><stop offset="0" stop-color="#4D4D4D"></stop><stop offset="1" stop-color="#969595"></stop></linearGradient></defs><path fill="url(#gradient_2)" transform="scale(2 2)" d="M274.882 192.39C276.381 189.425 278.543 186.657 280.619 184.066C313.748 142.715 380.331 143.279 410.979 186.413C412.665 188.785 414.564 191.364 415.288 194.226C422.86 205.601 422.595 214.478 426.075 225.997C425.908 231.566 426.405 237.163 426.075 242.72C425.041 247.921 424.297 253.056 422.732 258.145C398.987 335.364 288.686 333.329 266.422 254.228C265.469 250.844 264.855 247.348 263.738 244.014C258.478 243.953 253.248 244.003 247.985 243.823C248.728 237.586 248.741 231.284 248.026 225.044C253.306 224.756 258.459 224.823 263.738 225.007C264.772 223.981 264.438 221.358 264.623 219.945C265.853 210.548 269.698 200.195 274.882 192.39Z"></path><path fill="#4F4D4C" transform="scale(2 2)" d="M248.026 225.044C253.306 224.756 258.459 224.823 263.738 225.007C263.948 225.224 263.837 242.788 263.738 244.014C258.478 243.953 253.248 244.003 247.985 243.823C248.728 237.586 248.741 231.284 248.026 225.044Z"></path><defs><linearGradient id="SvgjsLinearGradient1016" gradientUnits="userSpaceOnUse" x1="339.86227" y1="303.80884" x2="349.09918" y2="164.27312"><stop offset="0" stop-color="#373636"></stop><stop offset="1" stop-color="#5A5A59"></stop></linearGradient></defs><path fill="url(#gradient_3)" transform="scale(2 2)" d="M282.874 200.455C295.437 177.329 319.837 163.129 346.15 163.631C372.463 164.133 396.304 179.253 407.976 202.84C422.793 232.782 414.553 269.013 388.245 289.602C361.937 310.192 324.788 309.483 299.284 287.906C273.779 266.329 266.927 229.81 282.874 200.455Z"></path><path fill="#E0DFDF" transform="scale(2 2)" d="M342.316 179.023C373.015 177.647 399.039 201.371 400.501 232.066C401.962 262.761 378.31 288.851 347.619 290.398C316.808 291.951 290.593 268.185 289.125 237.37C287.658 206.554 311.496 180.405 342.316 179.023Z"></path><path fill="#F7F7F6" transform="scale(2 2)" d="M339.909 182.717C368.486 180.065 393.81 201.063 396.496 229.636C399.181 258.21 378.213 283.559 349.642 286.278C321.025 289.001 295.625 267.991 292.935 239.37C290.245 210.748 311.285 185.373 339.909 182.717Z"></path><path fill="#44A2F5" transform="scale(2 2)" d="M340.682 196.992C361.324 194.735 379.889 209.632 382.157 230.272C384.425 250.912 369.537 269.485 348.898 271.764C328.244 274.044 309.654 259.143 307.385 238.488C305.115 217.832 320.026 199.251 340.682 196.992Z"></path><defs><linearGradient id="SvgjsLinearGradient1015" gradientUnits="userSpaceOnUse" x1="344.84805" y1="252.75706" x2="343.2088" y2="217.46707"><stop offset="0" stop-color="#0248D0"></stop><stop offset="1" stop-color="#2164E6"></stop></linearGradient></defs><path fill="url(#gradient_4)" transform="scale(2 2)" d="M336.152 219.002C349.981 211.262 366.42 225.682 361.94 240.69C359.08 250.27 348.14 255.328 338.81 252.27C329.492 249.216 321.732 236.262 326.972 226.912C323.129 220.589 330.618 214.378 336.152 219.002Z"></path><path fill="#F7F7F6" transform="scale(2 2)" d="M326.972 226.912C323.129 220.589 330.618 214.378 336.152 219.002C340.608 225.559 333.574 231.589 326.972 226.912Z"></path><defs><linearGradient id="SvgjsLinearGradient1014" gradientUnits="userSpaceOnUse" x1="173.20618" y1="315.05423" x2="162.16982" y2="153.53964"><stop offset="0" stop-color="#4D4C4C"></stop><stop offset="1" stop-color="#979595"></stop></linearGradient></defs><path fill="url(#gradient_5)" transform="scale(2 2)" d="M102.741 185.97C117.95 165.527 141.901 153.444 167.38 153.359C192.86 153.274 216.89 165.197 232.235 185.538C240.929 197.062 246.381 210.703 248.026 225.044C248.741 231.284 248.728 237.586 247.985 243.823C243.117 284.73 208.286 315.446 167.091 315.162C125.896 314.877 91.4932 283.683 87.1898 242.712C86.6151 237.241 86.6 231.726 87.1446 226.251C88.5965 211.659 93.9874 197.735 102.741 185.97Z"></path><defs><linearGradient id="SvgjsLinearGradient1013" gradientUnits="userSpaceOnUse" x1="178.19714" y1="303.14264" x2="156.9689" y2="165.31227"><stop offset="0" stop-color="#353433"></stop><stop offset="1" stop-color="#5A5959"></stop></linearGradient></defs><path fill="url(#gradient_6)" transform="scale(2 2)" d="M108.45 196.612C120.831 177.131 141.998 164.983 165.064 164.122C188.13 163.26 210.145 173.796 223.944 192.299C245.153 220.738 241.804 260.532 216.14 285.027C190.476 309.521 150.569 311.011 123.149 288.5C95.7298 265.988 89.4216 226.554 108.45 196.612Z"></path><path fill="#E0DFDF" transform="scale(2 2)" d="M161.911 179.394C192.57 176.346 219.877 198.775 222.845 229.442C225.814 260.109 203.315 287.358 172.64 290.246C142.077 293.124 114.95 270.726 111.993 240.171C109.035 209.616 131.364 182.43 161.911 179.394Z"></path><path fill="#F7F7F6" transform="scale(2 2)" d="M164.052 182.853C192.637 181.068 217.279 202.741 219.159 231.319C221.04 259.897 199.449 284.612 170.878 286.588C142.171 288.573 117.314 266.858 115.424 238.144C113.535 209.431 135.333 184.646 164.052 182.853Z"></path><path fill="#44A2F5" transform="scale(2 2)" d="M162.803 196.925C183.503 194.417 202.332 209.127 204.908 229.819C207.484 250.51 192.838 269.387 172.155 272.033C151.374 274.69 132.388 259.959 129.8 239.17C127.211 218.38 142.005 199.444 162.803 196.925Z"></path><defs><linearGradient id="SvgjsLinearGradient1012" gradientUnits="userSpaceOnUse" x1="168.69661" y1="252.79021" x2="166.8764" y2="216.41861"><stop offset="0" stop-color="#0046D8"></stop><stop offset="1" stop-color="#2A74EA"></stop></linearGradient></defs><path fill="url(#gradient_7)" transform="scale(2 2)" d="M151.292 225.997C150.132 219.693 156.61 212.257 162.665 216.756C186.87 209.857 196.226 246.897 172.216 252.743C155.981 256.696 144.072 238.362 151.292 225.997Z"></path><path fill="#F7F7F6" transform="scale(2 2)" d="M151.292 225.997C150.132 219.693 156.61 212.257 162.665 216.756C165.816 224.135 156.306 232.471 151.292 225.997Z"></path><defs><linearGradient id="SvgjsLinearGradient1011" gradientUnits="userSpaceOnUse" x1="425.55734" y1="245.2536" x2="456.39923" y2="237.67798"><stop offset="0" stop-color="#403D3B"></stop><stop offset="1" stop-color="#595956"></stop></linearGradient></defs><path fill="url(#gradient_8)" transform="scale(2 2)" d="M435.47 197.102C446.035 206.116 453.913 213.705 453.259 228.417L453.259 244.686C453.302 264.242 454.788 278.134 435.47 288.02C434.909 285.723 435.456 281.16 435.461 278.56L435.47 250.831C435.264 248.21 435.783 245.003 435.47 242.72C432.305 242.571 429.242 242.499 426.075 242.72C426.405 237.163 425.908 231.566 426.075 225.997C428.214 225.979 430.54 225.766 432.657 225.997C433.504 225.937 434.33 225.936 435.12 225.596C437.193 216.612 434.589 206.752 435.423 197.588L435.47 197.102Z"></path><path fill="#3A393A" transform="scale(2 2)" d="M426.075 225.997C428.214 225.979 430.54 225.766 432.657 225.997C438.349 226.324 434.564 236.413 435.47 242.72L435.47 242.72C432.305 242.571 429.242 242.499 426.075 242.72C426.405 237.163 425.908 231.566 426.075 225.997Z"></path><path fill="#4F4D4C" transform="scale(2 2)" d="M453.259 244.686L452.84 245.731C452.274 243.73 453.31 242.241 452.205 240.148C451.287 238.407 452.694 229.17 453.259 228.417L453.259 244.686Z"></path><path fill="#4F4D4C" transform="scale(2 2)" d="M435.47 242.72C435.801 238.354 434.797 231.602 435.669 227.675C435.562 230.681 435.437 233.679 435.47 236.687C437.447 238.371 438.906 240.019 435.832 241.356C435.536 243.829 436.535 248.889 435.47 250.831C435.264 248.21 435.783 245.003 435.47 242.72L435.47 242.72Z"></path><path fill="#4F4D4C" transform="scale(2 2)" d="M76.734 288.02C58.3566 278.114 59.2837 265.147 59.2764 246.359C59.2689 226.79 56.4914 210.056 77.0999 198.976L77.0765 217.597C77.071 220.312 76.7613 223.319 77.0999 225.997C78.1013 225.991 79.1223 225.94 80.1211 225.997C82.4706 226.16 84.7871 226.277 87.1446 226.251C86.6 231.726 86.6151 237.241 87.1898 242.712L77.0999 242.72C75.333 255.104 77.0446 274.837 76.734 288.02Z"></path><path fill="#3A393A" transform="scale(2 2)" d="M80.1211 225.997C82.4706 226.16 84.7871 226.277 87.1446 226.251C86.6 231.726 86.6151 237.241 87.1898 242.712L77.0999 242.72L77.0999 225.997C78.1141 226.06 79.1064 226.039 80.1211 225.997Z"></path><path fill="#3A393A" transform="scale(2 2)" d="M164.418 323.957C168.789 324.361 174.743 324.269 178.779 326.079C185.218 325.971 191.367 327.51 197.703 328.404C216.53 331.06 235.946 333.321 255.003 333.479C277.153 333.663 306.973 330.558 328.366 326.079C333.704 325.962 338.737 325.052 343.936 323.957C340.202 354.061 320.807 383.98 291.782 395.121C269.201 406.011 235.852 406.852 214.48 392.433C192.801 381.243 165.707 349.392 164.418 323.957Z"></path><defs><linearGradient id="SvgjsLinearGradient1010" gradientUnits="userSpaceOnUse" x1="253.50652" y1="326.40085" x2="253.43773" y2="359.12076"><stop offset="0" stop-color="#D9D8D9"></stop><stop offset="1" stop-color="white"></stop></linearGradient></defs><path fill="url(#gradient_9)" transform="scale(2 2)" d="M178.779 326.079C185.218 325.971 191.367 327.51 197.703 328.404C216.53 331.06 235.946 333.321 255.003 333.479C277.153 333.663 306.973 330.558 328.366 326.079C328.579 338.324 325.555 348.553 320.816 359.628L210.668 359.643C201.931 359.649 193.341 360.568 185.37 356.267C181.875 348.419 180.119 334.677 178.779 326.079Z"></path><path fill="#E38346" transform="scale(2 2)" d="M214.48 392.433C223.759 381.842 240.92 380.899 253.247 385.934C264.472 384.589 287.697 378.401 291.782 395.121C269.201 406.011 235.852 406.852 214.48 392.433Z"></path></svg><style>@media (prefers-color-scheme: light) { :root { filter: none; } }
@media (prefers-color-scheme: dark) { :root { filter: none; } }
</style></svg>